<svg width="32" height="32" viewBox="0 0 32 32" fill="none" xmlns="http://www.w3.org/2000/svg">
<rect width="32" height="32" fill="#F9F9F9"/>
<g id="Design">
<g clip-path="url(#clip0_0_1)">
<rect x="-299" y="-736" width="375" height="812" rx="25" fill="#E8EAED"/>
<g id="Rectangle 20" filter="url(#filter0_d_0_1)">
<rect x="-13" y="-13" width="60" height="60" rx="30" fill="white"/>
</g>
<g id="ant-design:plus-outlined">
<path id="Vector" d="M15.0625 4.75H16.9375C17.1042 4.75 17.1875 4.83333 17.1875 5V27C17.1875 27.1667 17.1042 27.25 16.9375 27.25H15.0625C14.8958 27.25 14.8125 27.1667 14.8125 27V5C14.8125 4.83333 14.8958 4.75 15.0625 4.75Z" fill="#C0C0C0"/>
<path id="Vector_2" d="M5.5 14.8125H26.5C26.6667 14.8125 26.75 14.8958 26.75 15.0625V16.9375C26.75 17.1042 26.6667 17.1875 26.5 17.1875H5.5C5.33333 17.1875 5.25 17.1042 5.25 16.9375V15.0625C5.25 14.8958 5.33333 14.8125 5.5 14.8125Z" fill="#C0C0C0"/>
</g>
</g>
</g>
<defs>
<filter id="filter0_d_0_1" x="-43" y="-39" width="120" height="120" filterUnits="userSpaceOnUse" color-interpolation-filters="sRGB">
<feFlood flood-opacity="0" result="BackgroundImageFix"/>
<feColorMatrix in="SourceAlpha" type="matrix" values="0 0 0 0 0 0 0 0 0 0 0 0 0 0 0 0 0 0 127 0" result="hardAlpha"/>
<feOffset dy="4"/>
<feGaussianBlur stdDeviation="15"/>
<feColorMatrix type="matrix" values="0 0 0 0 0 0 0 0 0 0 0 0 0 0 0 0 0 0 0.15 0"/>
<feBlend mode="normal" in2="BackgroundImageFix" result="effect1_dropShadow_0_1"/>
<feBlend mode="normal" in="SourceGraphic" in2="effect1_dropShadow_0_1" result="shape"/>
</filter>
<clipPath id="clip0_0_1">
<rect x="-299" y="-736" width="375" height="812" rx="25" fill="white"/>
</clipPath>
</defs>
</svg>
